# The Great Editor v0.0.1
mtllib floor_1.mtl
o floor_1
v 5.919785710001359 -7.609757538104058 0
v 5.919785710001359 -7.609757538104058 -0.1
v 13.17136039436496 -7.632550992432995 0
v 13.17136039436496 -7.632550992432995 -0.1
v 13.168104186603681 -13.760733999156074 0
v 13.168104186603681 -13.760733999156074 -0.1
v 35.02458473223439 -13.745267012290011 0
v 35.02458473223439 -13.745267012290011 -0.1
v 35.04493603074236 -27.502744803684806 0
v 35.04493603074236 -27.502744803684806 -0.1
v 5.913273294478805 -27.50518695950576 0
v 5.913273294478805 -27.50518695950576 -0.1
vt 5.919785710001359 -7.609757538104058 0
vt 13.17136039436496 -7.632550992432995 0
vt 13.168104186603681 -13.760733999156074 0
vt 35.02458473223439 -13.745267012290011 0
vt 35.04493603074236 -27.502744803684806 0
vt 5.913273294478805 -27.50518695950576 0
vn 0 0 1
vn 0 0 -1
usemtl floor_1
s off
f 11/6/1 5/3/1 1/1/1
f 2/1/2 6/3/2 12/6/2
f 5/3/1 3/2/1 1/1/1
f 2/1/2 4/2/2 6/3/2
f 5/3/1 9/5/1 7/4/1
f 8/4/2 10/5/2 6/3/2
f 9/5/1 5/3/1 11/6/1
f 12/6/2 6/3/2 10/5/2
